<?xml version="1.0" encoding="UTF-8" standalone="no"?>
<!-- Created with Inkscape (http://www.inkscape.org/) -->

<svg
   width="64"
   height="64"
   viewBox="0 0 16.933333 16.933333"
   version="1.1"
   id="svg5"
   xml:space="preserve"
   inkscape:version="1.1.1 (c3084ef, 2021-09-22)"
   sodipodi:docname="super_secret_max_plugin.svg"
   xmlns:inkscape="http://www.inkscape.org/namespaces/inkscape"
   xmlns:sodipodi="http://sodipodi.sourceforge.net/DTD/sodipodi-0.dtd"
   xmlns:xlink="http://www.w3.org/1999/xlink"
   xmlns="http://www.w3.org/2000/svg"
   xmlns:svg="http://www.w3.org/2000/svg"
   xmlns:sketch="http://www.bohemiancoding.com/sketch/ns"><sodipodi:namedview
     id="namedview7"
     pagecolor="#505050"
     bordercolor="#ffffff"
     borderopacity="1"
     inkscape:showpageshadow="0"
     inkscape:pageopacity="0"
     inkscape:pagecheckerboard="1"
     inkscape:deskcolor="#505050"
     inkscape:document-units="mm"
     showgrid="false"
     inkscape:zoom="10.124732"
     inkscape:cx="44.988843"
     inkscape:cy="23.111722"
     inkscape:window-width="1400"
     inkscape:window-height="832"
     inkscape:window-x="20"
     inkscape:window-y="1460"
     inkscape:window-maximized="0"
     inkscape:current-layer="layer1"
     inkscape:pageshadow="2" /><defs
     id="defs2"><linearGradient
       x1="356.33796"
       y1="0"
       x2="356.33796"
       y2="612.9013"
       id="linearGradient4812"
       gradientTransform="scale(0.84189739,1.1877932)"
       gradientUnits="userSpaceOnUse"><stop
         stop-color="#88C649"
         stop-opacity="0.8"
         offset="0"
         id="stop4808"
         style="stop-color:#3c7b2e;stop-opacity:0.74117643" /><stop
         stop-color="#439240"
         stop-opacity="0.84"
         offset="1"
         id="stop4810"
         style="stop-color:#000000;stop-opacity:0.67924529;" /></linearGradient><linearGradient
       x1="356.33796"
       y1="0"
       x2="356.33796"
       y2="612.9013"
       id="linearGradient4072"
       gradientTransform="scale(0.84189739,1.1877932)"
       gradientUnits="userSpaceOnUse"><stop
         stop-color="#88C649"
         stop-opacity="0.8"
         offset="0"
         id="stop4068"
         style="stop-color:#000000;stop-opacity:0.6981132;" /><stop
         stop-color="#439240"
         stop-opacity="0.84"
         offset="1"
         id="stop4070"
         style="stop-color:#306a30;stop-opacity:0.83999997;" /></linearGradient><linearGradient
       x1="167.95833"
       y1="-0.46142398"
       x2="167.95833"
       y2="335.45523"
       id="linearGradient-1"
       gradientTransform="matrix(0.01045447,0,0,0.0491023,0.62617658,-0.32543959)"
       gradientUnits="userSpaceOnUse"><stop
         stop-color="#16B0ED"
         stop-opacity="0.800235524"
         offset="0%"
         id="stop11" /><stop
         stop-color="#0F59B2"
         stop-opacity="0.83700023"
         offset="100%"
         id="stop13" /></linearGradient><linearGradient
       x1="1118.3426"
       y1="-0.46586797"
       x2="1118.3426"
       y2="338.68602"
       id="linearGradient-2"
       gradientTransform="matrix(-0.46586797,0,0,2.1465309,983.58395,-9.3573337)"
       gradientUnits="userSpaceOnUse"><stop
         stop-color="#7DB643"
         offset="0%"
         id="stop16" /><stop
         stop-color="#367533"
         offset="100%"
         id="stop18" /></linearGradient><linearGradient
       x1="356.33796"
       y1="0"
       x2="356.33796"
       y2="612.9013"
       id="linearGradient-3"
       gradientTransform="scale(0.84189739,1.1877932)"
       gradientUnits="userSpaceOnUse"><stop
         stop-color="#88C649"
         stop-opacity="0.8"
         offset="0%"
         id="stop21" /><stop
         stop-color="#439240"
         stop-opacity="0.84"
         offset="100%"
         id="stop23" /></linearGradient><linearGradient
       inkscape:collect="always"
       xlink:href="#linearGradient-2"
       id="linearGradient991"
       x1="864.74512"
       y1="306.59421"
       x2="1122.0408"
       y2="306.59421"
       gradientUnits="userSpaceOnUse"
       gradientTransform="matrix(0.03582812,0.03582812,-0.03582812,0.03582812,-12.226507,-38.374183)" /><linearGradient
       inkscape:collect="always"
       xlink:href="#linearGradient-3"
       id="linearGradient1734"
       x1="565.17242"
       y1="457.48947"
       x2="787.07953"
       y2="457.48947"
       gradientUnits="userSpaceOnUse"
       gradientTransform="matrix(0.00984462,-0.07559465,0.07559465,0.00984462,-33.375588,55.589912)" /><linearGradient
       inkscape:collect="always"
       xlink:href="#linearGradient4812"
       id="linearGradient4806"
       x1="11.035873"
       y1="10.180633"
       x2="23.729435"
       y2="22.996246"
       gradientUnits="userSpaceOnUse"
       gradientTransform="matrix(1.0515765,0,0,1.0515765,-1.4655284,-0.37365415)" /></defs><g
     inkscape:label="Layer 1"
     inkscape:groupmode="layer"
     id="layer1"><path
       d="M 0.71318732,3.1114238 3.0141501,0.78714836 4.1380085,2.0392866 V 16.146185 L 0.71318732,12.551852 Z"
       id="Left---green"
       fill="url(#linearGradient-1)"
       sketch:type="MSShapeGroup"
       style="fill:url(#linearGradient-1);fill-rule:evenodd;stroke:none;stroke-width:0.022657"
       sodipodi:nodetypes="cccccc" /><path
       d="M 15.781142,8.6352592 13.373434,6.2275509 C 13.611559,5.6190091 13.479267,4.9046341 12.976559,4.4019258 12.447392,3.8727591 11.653642,3.7669258 11.018642,4.0579674 L 12.15635,5.1956759 11.3626,5.9894258 10.198434,4.8517176 c -0.3175004,0.6349999 -0.185209,1.4287498 0.343958,1.9579165 0.502708,0.5027085 1.217083,0.6350001 1.825625,0.3968751 l 2.407708,2.4077083 c 0.105834,0.1058327 0.264584,0.1058327 0.370417,0 l 0.608542,-0.6085416 c 0.132291,-0.1058335 0.132291,-0.2910418 0.02646,-0.3704167 z"
       id="path262"
       style="fill:none;fill-rule:evenodd;stroke:none;stroke-width:0.264584" /><path
       d="m 13.960827,15.598266 -4e-6,-7.6147559 c 1.338858,-0.5857523 2.259323,-1.9246107 2.259323,-3.5145022 2e-6,-1.673573 -1.087822,-3.0961084 -2.552196,-3.64001944 l -3e-6,3.59817994 H 11.157592 L 11.115752,0.78714836 C 9.6095329,1.2892199 8.5635517,2.7535953 8.5635517,4.4271684 c 0,1.5898936 0.9204649,2.9287521 2.2593243,3.5145022 v 7.6147554 c 0,0.334716 0.251034,0.58575 0.585748,0.58575 h 1.924609 c 0.376556,0.04184 0.66943,-0.251034 0.627592,-0.54391 z"
       id="path271"
       style="fill:url(#linearGradient991);fill-opacity:1;fill-rule:evenodd;stroke:none;stroke-width:0.5917" /><path
       d="M 0.71318732,3.1114238 7.4702399,10.459977 9.6995664,8.1468079 3.0141501,0.78714836"
       id="path1356"
       style="fill:url(#linearGradient1734);fill-opacity:1;fill-rule:evenodd;stroke:none;stroke-width:0.890234"
       sodipodi:nodetypes="cccc" /><path
       d="m 8.3777147,11.427624 c -0.1693211,1.300179 0.7474213,2.491445 2.0476013,2.660767 1.027994,0.133874 1.450911,1.114672 1.365066,1.773844 1.051387,-0.597273 1.824943,-1.757431 1.978233,-2.934523 0.225762,-1.733573 -0.996561,-3.3219272 -2.730133,-3.547689 -1.30018,-0.169321 -2.4914464,0.747421 -2.6607673,2.047601 z"
       style="fill:url(#linearGradient4806);fill-opacity:1;fill-rule:nonzero;stroke:none;stroke-width:34.9277"
       id="path4051" /></g></svg>
